<svg preserveAspectRatio="none" width="100%" height="100%" overflow="visible" style="display: block;" viewBox="0 0 30.4444 30.4444" fill="none" xmlns="http://www.w3.org/2000/svg">
<g id="Frame">
<path id="Vector" d="M25.6875 2.85393H4.75697C4.25232 2.85393 3.76834 3.0544 3.4115 3.41124C3.05466 3.76808 2.85419 4.25206 2.85419 4.75671V25.6873C2.85419 26.1919 3.05466 26.6759 3.4115 27.0327C3.76834 27.3896 4.25232 27.59 4.75697 27.59H25.6875C26.1922 27.59 26.6762 27.3896 27.033 27.0327C27.3898 26.6759 27.5903 26.1919 27.5903 25.6873V4.75671C27.5903 4.25206 27.3898 3.76808 27.033 3.41124C26.6762 3.0544 26.1922 2.85393 25.6875 2.85393ZM11.4167 20.9303C11.4167 21.1826 11.3165 21.4246 11.138 21.6031C10.9596 21.7815 10.7176 21.8817 10.4653 21.8817C10.213 21.8817 9.97099 21.7815 9.79257 21.6031C9.61415 21.4246 9.51392 21.1826 9.51392 20.9303V13.3192C9.51392 13.0669 9.61415 12.8249 9.79257 12.6465C9.97099 12.4681 10.213 12.3678 10.4653 12.3678C10.7176 12.3678 10.9596 12.4681 11.138 12.6465C11.3165 12.8249 11.4167 13.0669 11.4167 13.3192V20.9303ZM10.4653 11.4164C10.1831 11.4164 9.90714 11.3327 9.67246 11.1759C9.43778 11.0191 9.25486 10.7962 9.14685 10.5355C9.03884 10.2747 9.01058 9.98776 9.06564 9.71094C9.12071 9.43411 9.25662 9.17983 9.4562 8.98025C9.65579 8.78067 9.91007 8.64475 10.1869 8.58969C10.4637 8.53462 10.7507 8.56288 11.0114 8.6709C11.2722 8.77891 11.4951 8.96182 11.6519 9.1965C11.8087 9.43119 11.8924 9.7071 11.8924 9.98935C11.8924 10.3678 11.742 10.7308 11.4744 10.9984C11.2068 11.2661 10.8438 11.4164 10.4653 11.4164ZM21.882 20.9303C21.882 21.1826 21.7817 21.4246 21.6033 21.6031C21.4249 21.7815 21.1829 21.8817 20.9306 21.8817C20.6783 21.8817 20.4363 21.7815 20.2578 21.6031C20.0794 21.4246 19.9792 21.1826 19.9792 20.9303V16.6491C19.9792 16.0183 19.7286 15.4133 19.2826 14.9672C18.8365 14.5212 18.2315 14.2706 17.6007 14.2706C16.9699 14.2706 16.3649 14.5212 15.9189 14.9672C15.4728 15.4133 15.2222 16.0183 15.2222 16.6491V20.9303C15.2222 21.1826 15.122 21.4246 14.9436 21.6031C14.7652 21.7815 14.5232 21.8817 14.2709 21.8817C14.0185 21.8817 13.7765 21.7815 13.5981 21.6031C13.4197 21.4246 13.3195 21.1826 13.3195 20.9303V13.3192C13.3207 13.0862 13.4073 12.8617 13.563 12.6883C13.7188 12.5149 13.9327 12.4047 14.1643 12.3786C14.3958 12.3525 14.6289 12.4123 14.8194 12.5467C15.0098 12.681 15.1442 12.8806 15.1973 13.1075C15.8409 12.6709 16.5912 12.4179 17.3678 12.3756C18.1444 12.3333 18.9178 12.5033 19.605 12.8674C20.2922 13.2315 20.8673 13.7759 21.2685 14.4421C21.6696 15.1084 21.8817 15.8714 21.882 16.6491V20.9303Z" fill="var(--fill-0, #2E3192)"/>
</g>
</svg>
