<svg width="56" height="56" viewBox="0 0 56 56" fill="none" xmlns="http://www.w3.org/2000/svg">
<rect width="56" height="56" rx="28" fill="#E6E6E6"/>
<g clip-path="url(#clip0_2138_169)">
<path d="M29.3663 34.4901C28.624 33.7508 27.379 33.7466 26.6545 34.4692L19.392 41.7246C17.4423 43.6729 14.5434 44.225 12.002 43.127V39.9803C13.5795 41.3837 15.8481 41.3482 17.3869 39.9594L18.6749 38.6616C16.398 38.4661 14.2246 38.1565 12.001 37.5803L12.0041 34.8164C15.0368 35.6384 18.0874 36.0797 21.2518 36.0839C21.9951 35.288 22.5753 34.3908 23.0489 33.3795C19.2446 33.5646 15.592 33.1223 12.002 32.0431V29.2216C15.9181 30.5131 20.0025 31.035 24.0734 30.6041C24.2553 29.6692 24.3149 28.8169 24.342 27.8988C20.6026 28.3505 16.9217 27.9657 13.3328 26.8718L13.3443 24.042C17.0085 25.3011 20.7239 25.7194 24.5145 25.1976L24.6766 22.4891C21.2644 23.0245 17.9305 22.7317 14.6699 21.6901L14.6678 18.8582C17.9671 20.0776 21.4138 20.4154 24.8449 19.7409L25.0142 16.979C22.0024 17.7048 18.9111 17.5134 15.9976 16.5011L16.0059 13.6807C18.9864 14.9032 22.1697 15.0611 25.1951 14.1827C25.4084 12.728 26.6148 11.6488 28.0752 11.6886C29.4834 11.7262 30.5967 12.7835 30.8069 14.1837C33.8323 15.0642 37.0145 14.9011 39.996 13.6839L40.0044 16.5063C37.1075 17.4998 34.0518 17.7131 30.9929 16.9822L31.156 19.7398C34.5892 20.4164 38.039 20.0797 41.3331 18.8614L41.3383 21.687C38.1247 22.7265 34.7522 23.0297 31.3264 22.4839L31.4885 25.1976C35.2791 25.7163 38.9966 25.3074 42.6587 24.0452L42.6702 26.8771C39.0813 27.9667 35.4004 28.3505 31.6599 27.8998C31.6902 28.8378 31.7446 29.7205 31.9411 30.6104C36.0475 31.0266 40.0995 30.5121 44.002 29.2237V32.0452C40.3776 33.1422 36.6601 33.5584 32.9426 33.3827C33.4549 34.4127 34.0058 35.2975 34.7543 36.0839C37.9146 36.0776 40.9672 35.6405 43.9999 34.8195L44.0031 37.5876C41.7973 38.145 39.6583 38.4734 37.3292 38.6554L38.5743 39.9218C40.0974 41.3241 42.3471 41.4172 43.9937 39.9971L43.9989 43.1333C41.5495 44.1696 38.6777 43.7597 36.7782 41.869L29.3673 34.4912L29.3663 34.4901Z" fill="#101881"/>
</g>
<defs>
<clipPath id="clip0_2138_169">
<rect width="32" height="32" fill="white" transform="translate(12.001 11.6875)"/>
</clipPath>
</defs>
</svg>
