<svg width="56" height="56" viewBox="0 0 56 56" fill="none" xmlns="http://www.w3.org/2000/svg">
<rect width="56" height="56" rx="28" fill="#E6E6E6"/>
<g clip-path="url(#clip0_2139_315)">
<path d="M18.1909 40.8728C17.3223 41.0523 17.0049 42.6953 17.0018 43.7333L16.988 47.2198C16.988 47.4758 16.8082 47.6852 16.5638 47.6852L13.795 47.6874C13.5538 47.6874 13.3877 47.5156 13.3475 47.2642C12.9899 45.003 12.8608 42.7806 13.1888 40.505C13.5633 37.9092 14.4838 35.5018 16.0559 33.4622C17.1531 32.0386 18.6871 31.1589 20.3735 30.7556C21.3776 30.5163 22.2324 30.1773 23.1095 29.6323C26.185 27.7212 27.2165 23.4835 25.1577 20.3227C22.8354 16.7576 21.5479 12.6307 21.7404 8.23466C21.7521 7.95991 21.8071 7.68958 22.1446 7.68958L25.5269 7.68848C25.7819 7.68848 25.9396 7.90451 25.9512 8.15822C26.0591 10.6698 26.7182 12.8301 28.503 14.5285C28.8818 14.8897 29.397 15.0215 29.8763 14.7745C31.7341 13.8184 33.7569 13.4384 35.8264 13.7641C38.484 14.184 40.7396 15.9322 41.7955 18.5701C43.2026 22.0821 43.3475 26.0206 42.3858 29.7165C40.8084 35.7732 36.3723 41.1908 30.6126 43.1262C26.6537 44.4568 22.4578 43.7056 19.1114 41.1398C18.8384 40.9304 18.5009 40.8085 18.1909 40.8728Z" fill="#101881"/>
</g>
<defs>
<clipPath id="clip0_2139_315">
<rect width="40" height="40" fill="white" transform="translate(8 8)"/>
</clipPath>
</defs>
</svg>
