<svg width="56" height="56" viewBox="0 0 56 56" fill="none" xmlns="http://www.w3.org/2000/svg">
<rect width="56" height="56" rx="28" fill="#E6E6E6"/>
<g clip-path="url(#clip0_2139_345)">
<path d="M29.1255 26.3844C28.6841 26.3844 28.3163 26.2134 28 25.968C27.6763 26.2134 27.3085 26.3844 26.9039 26.3844H24.7559C24.3218 26.3844 23.9246 26.2431 23.5862 25.968C23.2625 26.2208 22.8947 26.3844 22.4901 26.3844H20.2759C19.8713 26.3844 19.4961 26.2134 19.1798 25.968C18.8634 26.2059 18.4883 26.3918 18.0837 26.3844L15.7959 26.3695C14.9131 26.3695 14.229 25.5813 14.2143 24.7188V24.0867C12.9048 23.8116 12 22.7036 12 21.3652V19.417C12 17.0077 13.6478 15.0893 15.9136 14.5018C17.8998 13.9962 19.8198 13.5947 21.8722 13.3567C26.183 12.8511 30.4864 12.8734 34.7899 13.4385C36.651 13.6839 38.3945 14.0482 40.1894 14.5316C42.411 15.1265 43.9926 17.0598 43.9926 19.4095V21.3577C43.9926 22.6888 43.0878 23.8041 41.8005 24.0867V24.7039C41.7784 25.6706 41.0133 26.3844 40.0717 26.377H37.8575C37.4823 26.3695 37.1292 26.1762 36.8276 25.9606C36.5039 26.1985 36.1361 26.377 35.7315 26.377H33.4437C33.0685 26.377 32.7154 26.1762 32.4138 25.9606C32.0901 26.1985 31.7223 26.377 31.3177 26.377H29.1329L29.1255 26.3844ZM26.8966 25.269C27.1982 25.269 27.4483 25.0236 27.4483 24.7113V21.9154C27.4409 20.6365 26.3743 19.6029 25.109 19.707C24.6087 19.7441 24.1453 20.22 24.1453 20.7331V24.7113C24.1379 25.0236 24.388 25.269 24.6897 25.269H26.9039H26.8966ZM31.3103 25.269C31.612 25.269 31.8621 25.0236 31.8621 24.7113V20.7331C31.8547 20.1829 31.3545 19.7218 30.8248 19.6995C29.5743 19.6549 28.5517 20.6588 28.5517 21.9154V24.7113C28.5517 25.0162 28.7945 25.269 29.0961 25.269H31.3103ZM22.4828 25.269C22.7844 25.269 23.0345 25.0236 23.0345 24.7113V22.4731C23.0271 21.1941 21.9678 20.168 20.6952 20.2647C20.1949 20.3018 19.7315 20.7777 19.7315 21.2908V24.7113C19.7241 25.0236 19.9743 25.269 20.2759 25.269H22.4901H22.4828ZM35.7241 25.269C36.0257 25.269 36.2759 25.0236 36.2759 24.7113V21.2908C36.2685 20.7406 35.7683 20.2795 35.2386 20.2572C33.988 20.2126 32.9655 21.2165 32.9655 22.4731V24.7113C32.9655 25.0162 33.2083 25.269 33.5099 25.269H35.7241ZM18.069 25.269C18.3706 25.269 18.6207 25.0236 18.6207 24.7113V23.0308C18.6133 21.7518 17.554 20.7257 16.2814 20.8223C15.7811 20.8595 15.3177 21.3354 15.3177 21.8485V24.7113C15.3103 25.0162 15.5605 25.269 15.8621 25.269H18.0763H18.069ZM40.1379 25.269C40.4395 25.269 40.6897 25.0236 40.6897 24.7113V21.8485C40.6823 21.3057 40.1894 20.8372 39.6524 20.8149C38.4018 20.7703 37.3793 21.7741 37.3793 23.0308V24.7113C37.3793 25.0162 37.6221 25.269 37.9237 25.269H40.1379Z" fill="#101881"/>
<path d="M36.8202 29.0318C37.1513 28.7864 37.5191 28.6153 37.9237 28.6153H40.1453C41.0133 28.6153 41.7563 29.3292 41.7857 30.2141L41.8078 30.9056C43.0952 31.1882 44 32.2961 44 33.6346V35.5902C44 37.8805 42.4699 39.8212 40.2998 40.431C34.4589 42.0669 27.8823 42.3494 21.8722 41.643C19.8198 41.4051 17.8924 41.0036 15.9136 40.4979C13.6184 39.9105 12 37.9474 12 35.5084V33.6346C12 32.3036 12.9122 31.1956 14.1922 30.9056L14.2143 30.2066C14.2363 29.3738 14.9425 28.6302 15.7811 28.6228L17.9954 28.6079C18.4294 28.6079 18.8267 28.7566 19.1651 29.0318C19.5034 28.7492 19.9007 28.6079 20.3347 28.6079H22.4828C22.8874 28.6079 23.2625 28.7789 23.5789 29.0243C23.8731 28.8087 24.2336 28.6153 24.6087 28.6153H26.8966C27.3011 28.6153 27.6763 28.7864 27.9926 29.0318C28.3163 28.7789 28.6841 28.6153 29.0887 28.6153H31.1632C31.6267 28.6153 32.046 28.7269 32.4064 29.0392C32.7301 28.7789 33.0979 28.6153 33.5025 28.6153H35.7168C36.1067 28.6153 36.4671 28.7641 36.8055 29.0318H36.8202ZM18.6207 31.9392V30.281C18.6207 29.9761 18.3779 29.7307 18.069 29.7307H15.8547C15.5457 29.7307 15.3103 29.9761 15.303 30.2884V33.0174C15.303 33.59 15.6708 34.1402 16.274 34.1774C17.5393 34.2741 18.6133 33.2553 18.6133 31.9392H18.6207ZM23.0345 32.4969V30.2884C23.0345 29.9836 22.7917 29.7307 22.4828 29.7307H20.2685C19.9595 29.7307 19.7241 29.9761 19.7168 30.2884V33.5751C19.7168 34.1477 20.0846 34.6979 20.6878 34.7425C21.9531 34.8392 23.0271 33.8205 23.0271 32.5043L23.0345 32.4969ZM27.4483 33.0546V30.2884C27.4483 29.9836 27.2055 29.7307 26.8966 29.7307H24.6823C24.3733 29.7307 24.1306 29.9761 24.1306 30.2884V34.1253C24.1306 34.6979 24.4984 35.2482 25.1016 35.2928C26.3669 35.382 27.4409 34.3707 27.4409 33.0546H27.4483ZM31.8621 34.17V30.2884C31.8621 29.9761 31.6193 29.7307 31.3103 29.7307H29.0961C28.7945 29.7307 28.5444 29.9761 28.5444 30.2884V33.0843C28.5444 34.3633 29.6184 35.3894 30.8837 35.2928C31.4428 35.2482 31.8547 34.75 31.8547 34.17H31.8621ZM36.2759 33.6123V30.2884C36.2759 29.9836 36.0331 29.7307 35.7241 29.7307H33.5099C33.2083 29.7307 32.9582 29.9761 32.9582 30.2884V32.5266C32.9582 33.8056 34.0322 34.8318 35.2975 34.7351C35.8566 34.6905 36.2685 34.1923 36.2685 33.6123H36.2759ZM40.6897 33.0546V30.2884C40.6897 29.9836 40.4469 29.7307 40.1379 29.7307H37.9237C37.6221 29.7307 37.372 29.9761 37.372 30.281V31.9615C37.372 33.2405 38.446 34.2592 39.7113 34.17C40.2703 34.1253 40.6823 33.6197 40.6823 33.0471L40.6897 33.0546Z" fill="#101881"/>
</g>
<defs>
<clipPath id="clip0_2139_345">
<rect width="32" height="29" fill="white" transform="translate(12 13)"/>
</clipPath>
</defs>
</svg>
